<svg width="269" height="107" viewBox="0 0 269 107" fill="none" xmlns="http://www.w3.org/2000/svg">
<rect width="269" height="107" fill="#1E1E1E"/>
<path d="M85.384 84.32C85.9813 81.2907 86.5573 78.3253 87.112 75.424C87.7093 72.48 88.2853 69.5787 88.84 66.72C89.4373 63.392 90.0347 60.0213 90.632 56.608C91.272 53.1947 91.848 49.8667 92.36 46.624C92.9147 43.3813 93.3413 40.3733 93.64 37.6C94.3227 37.5573 94.984 37.5147 95.624 37.472C96.264 37.4293 96.8827 37.3867 97.48 37.344C98.0347 37.3013 98.5893 37.2587 99.144 37.216C99.7413 37.1733 100.317 37.1307 100.872 37.088L103.944 36.896C104.243 38.5173 104.499 40.1173 104.712 41.696C104.968 43.2747 105.203 44.8107 105.416 46.304C105.587 47.328 105.779 48.5227 105.992 49.888C106.248 51.2533 106.483 52.6613 106.696 54.112C106.952 55.52 107.187 56.8427 107.4 58.08C107.656 59.3173 107.869 60.32 108.04 61.088C108.467 58.8267 108.808 56.9707 109.064 55.52C109.363 54.0267 109.64 52.5973 109.896 51.232C110.195 49.824 110.536 48.1813 110.92 46.304L112.904 36.96L120.712 36C119.987 39.2 119.304 42.3147 118.664 45.344C118.024 48.3733 117.427 51.3173 116.872 54.176C115.805 59.3387 114.867 64.1813 114.056 68.704C113.245 73.184 112.627 77.1093 112.2 80.48L101.768 82.912L100.808 73.056C100.723 72.0747 100.595 70.9013 100.424 69.536C100.253 68.128 100.083 66.6987 99.912 65.248C99.7413 63.7547 99.5707 62.4107 99.4 61.216C99.2293 59.9787 99.1013 59.0613 99.016 58.464C98.5893 60.9813 98.184 63.4347 97.8 65.824C97.416 68.1707 96.9893 70.4533 96.52 72.672C96.2213 74.1653 95.9227 75.7227 95.624 77.344C95.368 78.9227 95.0693 80.5227 94.728 82.144L85.384 84.32ZM114.512 84.064L122.896 38.56L143.12 36.832C142.821 37.7707 142.565 38.7307 142.352 39.712C142.139 40.5227 141.925 41.376 141.712 42.272C141.541 43.1253 141.392 43.8933 141.264 44.576C140.709 44.6187 139.92 44.6613 138.896 44.704C137.872 44.704 136.827 44.7253 135.76 44.768C134.693 44.768 133.776 44.768 133.008 44.768C132.24 44.768 131.835 44.768 131.792 44.768L129.552 56.224L133.264 56.032C133.733 55.9893 134.203 55.968 134.672 55.968C135.184 55.968 135.675 55.968 136.144 55.968C136.613 55.968 137.04 55.968 137.424 55.968C137.808 55.968 138.107 55.9467 138.32 55.904C138.235 56.5013 138.149 57.0987 138.064 57.696C138.021 58.2507 137.957 58.8267 137.872 59.424L137.296 62.944C137.083 62.9867 136.805 63.008 136.464 63.008C136.123 63.008 135.717 63.008 135.248 63.008C134.779 63.0507 134.288 63.072 133.776 63.072C133.264 63.072 132.773 63.0933 132.304 63.136C131.749 63.1787 131.173 63.2 130.576 63.2C129.979 63.2 129.339 63.2213 128.656 63.264L126.48 75.04L135.824 73.568L135.184 80.864L114.512 84.064ZM146.373 85.152C145.093 85.152 143.791 84.8747 142.469 84.32C141.146 83.7653 140.037 82.912 139.141 81.76C138.245 80.608 137.797 79.136 137.797 77.344V76.832C137.797 76.6187 137.818 76.448 137.861 76.32C137.989 75.2107 138.159 73.76 138.373 71.968C138.629 70.176 138.927 68.2347 139.269 66.144C139.61 64.0107 139.951 61.8987 140.293 59.808C140.677 57.7173 141.018 55.8187 141.317 54.112C141.957 50.6987 142.469 47.9467 142.853 45.856C143.237 43.7653 143.535 42.1653 143.749 41.056C144.005 39.904 144.197 39.0507 144.325 38.496L154.885 37.472C154.33 40.0747 153.797 42.5493 153.285 44.896C152.815 47.2 152.367 49.3973 151.941 51.488L148.997 65.632C148.741 66.6987 148.549 67.5947 148.421 68.32C148.25 69.0027 148.058 69.8773 147.845 70.944C147.674 71.968 147.589 72.9067 147.589 73.76C147.589 74.4427 147.759 75.0187 148.101 75.488C148.442 75.9147 148.869 76.128 149.381 76.128C150.106 76.128 150.703 75.8507 151.173 75.296C151.642 74.7413 152.026 74.0587 152.325 73.248C152.623 72.4373 152.858 71.6267 153.029 70.816C153.199 69.9627 153.349 69.28 153.477 68.768C153.903 66.8053 154.287 64.9067 154.628 63.072C155.013 61.1947 155.397 59.2107 155.781 57.12C156.207 55.0293 156.677 52.6187 157.189 49.888C157.53 48.0107 157.871 46.112 158.213 44.192C158.597 42.2293 158.959 40.2453 159.301 38.24L169.029 37.6L166.789 49.952C166.49 51.5307 166.149 53.3013 165.765 55.264C165.423 57.2267 165.039 59.2107 164.613 61.216C164.186 63.2213 163.781 65.12 163.397 66.912C163.055 68.704 162.735 70.24 162.437 71.52C161.583 75.0187 160.261 77.7707 158.469 79.776C156.677 81.7387 154.693 83.1253 152.517 83.936C150.383 84.7467 148.335 85.152 146.373 85.152ZM162.881 84.064L166.209 67.424C166.721 64.352 167.276 61.1947 167.873 57.952C168.47 54.7093 169.025 51.5093 169.537 48.352C170.092 45.1947 170.518 42.2293 170.817 39.456C173.249 38.688 175.873 38.1333 178.689 37.792C181.505 37.408 184.3 37.216 187.073 37.216C190.316 37.216 192.513 37.92 193.665 39.328C194.86 40.736 195.457 42.6347 195.457 45.024C195.457 47.2 194.945 49.3973 193.921 51.616C192.897 53.792 191.553 55.776 189.889 57.568C188.268 59.3173 186.476 60.704 184.513 61.728C185.281 63.4347 186.092 65.312 186.945 67.36C187.841 69.3653 188.673 71.2853 189.441 73.12C189.868 74.1867 190.294 75.2533 190.721 76.32C191.19 77.3867 191.638 78.4533 192.065 79.52L182.145 82.976C181.718 81.4827 181.313 80.0533 180.929 78.688C180.545 77.3227 180.182 75.9787 179.841 74.656C179.414 73.0773 179.009 71.5627 178.625 70.112C178.241 68.6187 177.9 67.296 177.601 66.144C177.345 64.992 177.196 64.1813 177.153 63.712L176.321 63.968C176.065 65.3333 175.745 66.9973 175.361 68.96C175.02 70.9227 174.7 72.8213 174.401 74.656L173.249 81.376L162.881 84.064ZM177.921 56.288C178.689 56.2027 179.628 55.8827 180.737 55.328C181.889 54.7307 183.02 54.0053 184.129 53.152C185.281 52.2987 186.241 51.424 187.009 50.528C187.777 49.632 188.161 48.8427 188.161 48.16C188.161 47.3067 187.649 46.752 186.625 46.496C185.644 46.1973 184.342 46.048 182.721 46.048H181.313C181.057 46.0907 180.822 46.112 180.609 46.112C180.396 46.112 180.182 46.112 179.969 46.112L177.921 56.288ZM201.084 84.256C198.268 84.256 195.964 83.168 194.172 80.992C192.38 78.816 191.484 75.5307 191.484 71.136C191.484 68.704 191.783 66.144 192.38 63.456C192.977 60.768 193.809 58.1227 194.876 55.52C195.943 52.9173 197.18 50.5067 198.588 48.288C200.849 44.704 203.452 41.7813 206.396 39.52C209.34 37.2587 212.433 36.128 215.676 36.128C218.236 36.128 220.199 36.7893 221.564 38.112C222.972 39.392 223.953 41.056 224.508 43.104C225.063 45.1093 225.34 47.2 225.34 49.376C225.34 54.4533 224.551 59.1893 222.972 63.584C221.436 67.936 219.431 71.6267 216.956 74.656C214.481 77.7707 211.836 80.16 209.02 81.824C206.247 83.4453 203.601 84.256 201.084 84.256ZM204.54 73.696C206.46 73.696 208.145 73.056 209.596 71.776C211.089 70.496 212.348 68.8747 213.372 66.912C214.396 64.9067 215.164 62.816 215.676 60.64C216.188 58.464 216.444 56.5013 216.444 54.752C216.444 54.0693 216.38 53.344 216.252 52.576C216.124 51.7653 215.847 51.0613 215.42 50.464C214.993 49.8667 214.332 49.568 213.436 49.568C211.473 49.568 209.703 50.2933 208.124 51.744C206.545 53.152 205.223 54.944 204.156 57.12C203.089 59.3387 202.3 61.5147 201.788 63.648C201.276 65.7813 201.02 67.7227 201.02 69.472C201.02 70.368 201.34 71.3067 201.98 72.288C202.62 73.2267 203.473 73.696 204.54 73.696ZM221.447 84.32C222.044 81.2907 222.62 78.3253 223.174 75.424C223.772 72.48 224.348 69.5787 224.903 66.72C225.5 63.392 226.097 60.0213 226.695 56.608C227.335 53.1947 227.911 49.8667 228.423 46.624C228.977 43.3813 229.404 40.3733 229.703 37.6C230.385 37.5573 231.047 37.5147 231.687 37.472C232.327 37.4293 232.945 37.3867 233.543 37.344C234.097 37.3013 234.652 37.2587 235.207 37.216C235.804 37.1733 236.38 37.1307 236.935 37.088L240.007 36.896C240.305 38.5173 240.561 40.1173 240.775 41.696C241.031 43.2747 241.265 44.8107 241.479 46.304C241.649 47.328 241.841 48.5227 242.055 49.888C242.311 51.2533 242.545 52.6613 242.759 54.112C243.015 55.52 243.249 56.8427 243.463 58.08C243.719 59.3173 243.932 60.32 244.103 61.088C244.529 58.8267 244.871 56.9707 245.127 55.52C245.425 54.0267 245.703 52.5973 245.959 51.232C246.257 49.824 246.599 48.1813 246.983 46.304L248.967 36.96L256.775 36C256.049 39.2 255.367 42.3147 254.727 45.344C254.087 48.3733 253.489 51.3173 252.935 54.176C251.868 59.3387 250.929 64.1813 250.119 68.704C249.308 73.184 248.689 77.1093 248.263 80.48L237.831 82.912L236.871 73.056C236.785 72.0747 236.657 70.9013 236.487 69.536C236.316 68.128 236.145 66.6987 235.975 65.248C235.804 63.7547 235.633 62.4107 235.463 61.216C235.292 59.9787 235.164 59.0613 235.079 58.464C234.652 60.9813 234.247 63.4347 233.863 65.824C233.479 68.1707 233.052 70.4533 232.583 72.672C232.284 74.1653 231.985 75.7227 231.687 77.344C231.431 78.9227 231.132 80.5227 230.791 82.144L221.447 84.32Z" fill="black"/>
<path d="M75.1447 84.7511C72.9729 84.7565 70.9684 85.4989 69.3559 86.7462L69.382 86.7273L60.7603 78.6332C62.9033 75.6714 64.1917 71.9402 64.1917 67.8958C64.1917 63.5383 62.6968 59.5425 60.2062 56.4241L60.2297 56.4538L69.7531 46.6182C71.2794 47.6739 73.1559 48.3029 75.1734 48.3029C80.6016 48.3029 85 43.7591 85 38.1515C85 32.5439 80.6016 28 75.1734 28C69.7453 28 65.3469 32.5439 65.3469 38.1515C65.3469 40.2385 65.9558 42.177 67.0012 43.7888L66.9777 43.751L57.4569 53.5866C54.4645 51.0379 50.5914 49.4909 46.3654 49.4909C43.9166 49.4909 41.588 50.0093 39.4711 50.9488L39.5861 50.9029L36.8891 45.8434C38.9563 43.9859 40.2552 41.2671 40.2552 38.2325C40.2552 32.6708 35.8907 28.1647 30.5096 28.1647C25.1285 28.1647 20.7641 32.6735 20.7641 38.2325C20.7641 43.7942 25.1285 48.3002 30.5096 48.3002C30.5279 48.3002 30.5488 48.3002 30.5671 48.3002C31.6073 48.284 32.5978 48.1032 33.5255 47.7765L33.4576 47.7981L36.1677 52.8819C31.5759 56.2378 28.6149 61.6969 28.6044 67.8742V67.8769C28.6306 69.7587 28.9311 71.5595 29.4669 73.2496L29.4329 73.1228L25.7139 74.7508C23.9342 72.1292 21.0228 70.4391 17.7273 70.4391C12.354 70.4391 8 74.9371 8 80.488C8 86.0389 12.354 90.5368 17.7273 90.5368C23.1005 90.5368 27.4545 86.0389 27.4545 80.488C27.4545 79.7752 27.3839 79.0813 27.248 78.4118L27.2585 78.4766L30.967 76.8513C34.0169 82.5021 39.7665 86.2603 46.3654 86.2603C50.8867 86.2603 55.0107 84.4946 58.1259 81.5949L58.1102 81.6084L66.7581 89.7269C65.8826 91.1956 65.3599 92.9694 65.3495 94.8728C65.3495 100.464 69.7375 105 75.1499 105C80.5624 105 84.9503 100.467 84.9503 94.8755C84.9503 89.2841 80.5624 84.7511 75.1499 84.7511H75.1447ZM24.679 38.1785C24.679 34.8225 27.3108 32.1038 30.5593 32.1038C33.8078 32.1038 36.4395 34.8225 36.4395 38.1785C36.4395 41.5344 33.8078 44.2532 30.5593 44.2532C27.3134 44.2478 24.6842 41.5317 24.679 38.1785ZM17.6488 86.56C14.4029 86.5573 11.7738 83.8412 11.7738 80.488C11.7738 77.1347 14.4056 74.416 17.6515 74.416C20.8974 74.416 23.5265 77.132 23.5291 80.4853C23.5239 83.8385 20.8947 86.5546 17.6488 86.56ZM75.1447 32.1038C78.3932 32.1038 81.0249 34.8225 81.0249 38.1785C81.0249 41.5344 78.3932 44.2532 75.1447 44.2532C71.8962 44.2532 69.2644 41.5344 69.2644 38.1785C69.2697 34.8252 71.8988 32.1092 75.1447 32.1038ZM32.5194 67.8769C32.5194 67.8769 32.5194 67.8769 32.5194 67.8742C32.5194 59.9582 38.7315 53.5407 46.3942 53.5407C54.0568 53.5407 60.2689 59.9582 60.2689 67.8742C60.2689 75.7902 54.0568 82.2078 46.3942 82.2078C38.7341 82.1997 32.5298 75.7875 32.5194 67.8769ZM75.1447 100.95C71.8962 100.95 69.2644 98.2314 69.2644 94.8755C69.2644 91.5196 71.8962 88.8008 75.1447 88.8008C78.3932 88.8008 81.0249 91.5196 81.0249 94.8755C81.0197 98.2287 78.3906 100.945 75.1447 100.95Z" fill="black"/>
</svg>
