<svg width="263" height="77" viewBox="0 0 263 77" fill="none" xmlns="http://www.w3.org/2000/svg">
<path d="M67.1447 56.7511C64.9729 56.7565 62.9684 57.4989 61.3559 58.7462L61.382 58.7273L52.7603 50.6332C54.9033 47.6714 56.1917 43.9402 56.1917 39.8958C56.1917 35.5383 54.6968 31.5425 52.2062 28.4241L52.2297 28.4538L61.7531 18.6182C63.2794 19.6739 65.1559 20.3029 67.1734 20.3029C72.6016 20.3029 77 15.7591 77 10.1515C77 4.54386 72.6016 0 67.1734 0C61.7453 0 57.3469 4.54386 57.3469 10.1515C57.3469 12.2385 57.9558 14.177 59.0012 15.7888L58.9777 15.751L49.4569 25.5866C46.4645 23.0379 42.5914 21.4909 38.3654 21.4909C35.9166 21.4909 33.588 22.0093 31.4711 22.9488L31.5861 22.9029L28.8891 17.8434C30.9563 15.9859 32.2552 13.2671 32.2552 10.2325C32.2552 4.67076 27.8907 0.164691 22.5096 0.164691C17.1285 0.164691 12.7641 4.67346 12.7641 10.2325C12.7641 15.7942 17.1285 20.3002 22.5096 20.3002C22.5279 20.3002 22.5488 20.3002 22.5671 20.3002C23.6073 20.284 24.5978 20.1032 25.5255 19.7765L25.4576 19.7981L28.1677 24.8819C23.5759 28.2378 20.6149 33.6969 20.6044 39.8742V39.8769C20.6306 41.7587 20.9311 43.5595 21.4669 45.2496L21.4329 45.1228L17.7139 46.7508C15.9342 44.1292 13.0228 42.4391 9.72725 42.4391C4.354 42.4391 0 46.9371 0 52.488C0 58.0389 4.354 62.5368 9.72725 62.5368C15.1005 62.5368 19.4545 58.0389 19.4545 52.488C19.4545 51.7752 19.3839 51.0813 19.248 50.4118L19.2585 50.4766L22.967 48.8513C26.0169 54.5021 31.7665 58.2603 38.3654 58.2603C42.8867 58.2603 47.0107 56.4946 50.1259 53.5949L50.1102 53.6084L58.7581 61.7269C57.8826 63.1956 57.3599 64.9694 57.3495 66.8728C57.3495 72.4642 61.7375 77 67.1499 77C72.5624 77 76.9503 72.4669 76.9503 66.8755C76.9503 61.2841 72.5624 56.7511 67.1499 56.7511H67.1447ZM16.679 10.1785C16.679 6.82255 19.3108 4.10379 22.5593 4.10379C25.8078 4.10379 28.4395 6.82255 28.4395 10.1785C28.4395 13.5344 25.8078 16.2532 22.5593 16.2532C19.3134 16.2478 16.6842 13.5317 16.679 10.1785ZM9.64885 58.56C6.40295 58.5573 3.77382 55.8412 3.77382 52.488C3.77382 49.1347 6.40556 46.416 9.65146 46.416C12.8974 46.416 15.5265 49.132 15.5291 52.4853C15.5239 55.8385 12.8947 58.5546 9.64885 58.56ZM67.1447 4.10379C70.3932 4.10379 73.0249 6.82255 73.0249 10.1785C73.0249 13.5344 70.3932 16.2532 67.1447 16.2532C63.8962 16.2532 61.2644 13.5344 61.2644 10.1785C61.2697 6.82525 63.8988 4.10919 67.1447 4.10379ZM24.5194 39.8769C24.5194 39.8769 24.5194 39.8769 24.5194 39.8742C24.5194 31.9582 30.7315 25.5407 38.3942 25.5407C46.0568 25.5407 52.2689 31.9582 52.2689 39.8742C52.2689 47.7902 46.0568 54.2078 38.3942 54.2078C30.7341 54.1997 24.5298 47.7875 24.5194 39.8769ZM67.1447 72.9502C63.8962 72.9502 61.2644 70.2314 61.2644 66.8755C61.2644 63.5196 63.8962 60.8008 67.1447 60.8008C70.3932 60.8008 73.0249 63.5196 73.0249 66.8755C73.0197 70.2287 70.3906 72.9448 67.1447 72.9502Z" fill="black"/>
<path d="M91.384 56.32C91.9813 53.2907 92.5573 50.3253 93.112 47.424C93.7093 44.48 94.2853 41.5787 94.84 38.72C95.4373 35.392 96.0347 32.0213 96.632 28.608C97.272 25.1947 97.848 21.8667 98.36 18.624C98.9147 15.3813 99.3413 12.3733 99.64 9.6C100.323 9.55733 100.984 9.51466 101.624 9.472C102.264 9.42933 102.883 9.38666 103.48 9.344C104.035 9.30133 104.589 9.25867 105.144 9.216C105.741 9.17333 106.317 9.13066 106.872 9.088L109.944 8.896C110.243 10.5173 110.499 12.1173 110.712 13.696C110.968 15.2747 111.203 16.8107 111.416 18.304C111.587 19.328 111.779 20.5227 111.992 21.888C112.248 23.2533 112.483 24.6613 112.696 26.112C112.952 27.52 113.187 28.8427 113.4 30.08C113.656 31.3173 113.869 32.32 114.04 33.088C114.467 30.8267 114.808 28.9707 115.064 27.52C115.363 26.0267 115.64 24.5973 115.896 23.232C116.195 21.824 116.536 20.1813 116.92 18.304L118.904 8.96L126.712 8C125.987 11.2 125.304 14.3147 124.664 17.344C124.024 20.3733 123.427 23.3173 122.872 26.176C121.805 31.3387 120.867 36.1813 120.056 40.704C119.245 45.184 118.627 49.1093 118.2 52.48L107.768 54.912L106.808 45.056C106.723 44.0747 106.595 42.9013 106.424 41.536C106.253 40.128 106.083 38.6987 105.912 37.248C105.741 35.7547 105.571 34.4107 105.4 33.216C105.229 31.9787 105.101 31.0613 105.016 30.464C104.589 32.9813 104.184 35.4347 103.8 37.824C103.416 40.1707 102.989 42.4533 102.52 44.672C102.221 46.1653 101.923 47.7227 101.624 49.344C101.368 50.9227 101.069 52.5227 100.728 54.144L91.384 56.32ZM120.512 56.064L128.896 10.56L149.12 8.832C148.821 9.77066 148.565 10.7307 148.352 11.712C148.139 12.5227 147.925 13.376 147.712 14.272C147.541 15.1253 147.392 15.8933 147.264 16.576C146.709 16.6187 145.92 16.6613 144.896 16.704C143.872 16.704 142.827 16.7253 141.76 16.768C140.693 16.768 139.776 16.768 139.008 16.768C138.24 16.768 137.835 16.768 137.792 16.768L135.552 28.224L139.264 28.032C139.733 27.9893 140.203 27.968 140.672 27.968C141.184 27.968 141.675 27.968 142.144 27.968C142.613 27.968 143.04 27.968 143.424 27.968C143.808 27.968 144.107 27.9467 144.32 27.904C144.235 28.5013 144.149 29.0987 144.064 29.696C144.021 30.2507 143.957 30.8267 143.872 31.424L143.296 34.944C143.083 34.9867 142.805 35.008 142.464 35.008C142.123 35.008 141.717 35.008 141.248 35.008C140.779 35.0507 140.288 35.072 139.776 35.072C139.264 35.072 138.773 35.0933 138.304 35.136C137.749 35.1787 137.173 35.2 136.576 35.2C135.979 35.2 135.339 35.2213 134.656 35.264L132.48 47.04L141.824 45.568L141.184 52.864L120.512 56.064ZM152.373 57.152C151.093 57.152 149.791 56.8747 148.469 56.32C147.146 55.7653 146.037 54.912 145.141 53.76C144.245 52.608 143.797 51.136 143.797 49.344V48.832C143.797 48.6187 143.818 48.448 143.861 48.32C143.989 47.2107 144.159 45.76 144.373 43.968C144.629 42.176 144.927 40.2347 145.269 38.144C145.61 36.0107 145.951 33.8987 146.293 31.808C146.677 29.7173 147.018 27.8187 147.317 26.112C147.957 22.6987 148.469 19.9467 148.853 17.856C149.237 15.7653 149.535 14.1653 149.749 13.056C150.005 11.904 150.197 11.0507 150.325 10.496L160.885 9.472C160.33 12.0747 159.797 14.5493 159.285 16.896C158.815 19.2 158.367 21.3973 157.941 23.488L154.997 37.632C154.741 38.6987 154.549 39.5947 154.421 40.32C154.25 41.0027 154.058 41.8773 153.845 42.944C153.674 43.968 153.589 44.9067 153.589 45.76C153.589 46.4427 153.759 47.0187 154.101 47.488C154.442 47.9147 154.869 48.128 155.381 48.128C156.106 48.128 156.703 47.8507 157.173 47.296C157.642 46.7413 158.026 46.0587 158.325 45.248C158.623 44.4373 158.858 43.6267 159.029 42.816C159.199 41.9627 159.349 41.28 159.477 40.768C159.903 38.8053 160.287 36.9067 160.628 35.072C161.013 33.1947 161.397 31.2107 161.781 29.12C162.207 27.0293 162.677 24.6187 163.189 21.888C163.53 20.0107 163.871 18.112 164.213 16.192C164.597 14.2293 164.959 12.2453 165.301 10.24L175.029 9.6L172.789 21.952C172.49 23.5307 172.149 25.3013 171.765 27.264C171.423 29.2267 171.039 31.2107 170.613 33.216C170.186 35.2213 169.781 37.12 169.397 38.912C169.055 40.704 168.735 42.24 168.437 43.52C167.583 47.0187 166.261 49.7707 164.469 51.776C162.677 53.7387 160.693 55.1253 158.517 55.936C156.383 56.7467 154.335 57.152 152.373 57.152ZM168.881 56.064L172.209 39.424C172.721 36.352 173.276 33.1947 173.873 29.952C174.47 26.7093 175.025 23.5093 175.537 20.352C176.092 17.1947 176.518 14.2293 176.817 11.456C179.249 10.688 181.873 10.1333 184.689 9.792C187.505 9.408 190.3 9.216 193.073 9.216C196.316 9.216 198.513 9.92 199.665 11.328C200.86 12.736 201.457 14.6347 201.457 17.024C201.457 19.2 200.945 21.3973 199.921 23.616C198.897 25.792 197.553 27.776 195.889 29.568C194.268 31.3173 192.476 32.704 190.513 33.728C191.281 35.4347 192.092 37.312 192.945 39.36C193.841 41.3653 194.673 43.2853 195.441 45.12C195.868 46.1867 196.294 47.2533 196.721 48.32C197.19 49.3867 197.638 50.4533 198.065 51.52L188.145 54.976C187.718 53.4827 187.313 52.0533 186.929 50.688C186.545 49.3227 186.182 47.9787 185.841 46.656C185.414 45.0773 185.009 43.5627 184.625 42.112C184.241 40.6187 183.9 39.296 183.601 38.144C183.345 36.992 183.196 36.1813 183.153 35.712L182.321 35.968C182.065 37.3333 181.745 38.9973 181.361 40.96C181.02 42.9227 180.7 44.8213 180.401 46.656L179.249 53.376L168.881 56.064ZM183.921 28.288C184.689 28.2027 185.628 27.8827 186.737 27.328C187.889 26.7307 189.02 26.0053 190.129 25.152C191.281 24.2987 192.241 23.424 193.009 22.528C193.777 21.632 194.161 20.8427 194.161 20.16C194.161 19.3067 193.649 18.752 192.625 18.496C191.644 18.1973 190.342 18.048 188.721 18.048H187.313C187.057 18.0907 186.822 18.112 186.609 18.112C186.396 18.112 186.182 18.112 185.969 18.112L183.921 28.288ZM207.084 56.256C204.268 56.256 201.964 55.168 200.172 52.992C198.38 50.816 197.484 47.5307 197.484 43.136C197.484 40.704 197.783 38.144 198.38 35.456C198.977 32.768 199.809 30.1227 200.876 27.52C201.943 24.9173 203.18 22.5067 204.588 20.288C206.849 16.704 209.452 13.7813 212.396 11.52C215.34 9.25866 218.433 8.128 221.676 8.128C224.236 8.128 226.199 8.78933 227.564 10.112C228.972 11.392 229.953 13.056 230.508 15.104C231.063 17.1093 231.34 19.2 231.34 21.376C231.34 26.4533 230.551 31.1893 228.972 35.584C227.436 39.936 225.431 43.6267 222.956 46.656C220.481 49.7707 217.836 52.16 215.02 53.824C212.247 55.4453 209.601 56.256 207.084 56.256ZM210.54 45.696C212.46 45.696 214.145 45.056 215.596 43.776C217.089 42.496 218.348 40.8747 219.372 38.912C220.396 36.9067 221.164 34.816 221.676 32.64C222.188 30.464 222.444 28.5013 222.444 26.752C222.444 26.0693 222.38 25.344 222.252 24.576C222.124 23.7653 221.847 23.0613 221.42 22.464C220.993 21.8667 220.332 21.568 219.436 21.568C217.473 21.568 215.703 22.2933 214.124 23.744C212.545 25.152 211.223 26.944 210.156 29.12C209.089 31.3387 208.3 33.5147 207.788 35.648C207.276 37.7813 207.02 39.7227 207.02 41.472C207.02 42.368 207.34 43.3067 207.98 44.288C208.62 45.2267 209.473 45.696 210.54 45.696ZM227.447 56.32C228.044 53.2907 228.62 50.3253 229.174 47.424C229.772 44.48 230.348 41.5787 230.903 38.72C231.5 35.392 232.097 32.0213 232.695 28.608C233.335 25.1947 233.911 21.8667 234.423 18.624C234.977 15.3813 235.404 12.3733 235.703 9.6C236.385 9.55733 237.047 9.51466 237.687 9.472C238.327 9.42933 238.945 9.38666 239.543 9.344C240.097 9.30133 240.652 9.25867 241.207 9.216C241.804 9.17333 242.38 9.13066 242.935 9.088L246.007 8.896C246.305 10.5173 246.561 12.1173 246.775 13.696C247.031 15.2747 247.265 16.8107 247.479 18.304C247.649 19.328 247.841 20.5227 248.055 21.888C248.311 23.2533 248.545 24.6613 248.759 26.112C249.015 27.52 249.249 28.8427 249.463 30.08C249.719 31.3173 249.932 32.32 250.103 33.088C250.529 30.8267 250.871 28.9707 251.127 27.52C251.425 26.0267 251.703 24.5973 251.959 23.232C252.257 21.824 252.599 20.1813 252.983 18.304L254.967 8.96L262.775 8C262.049 11.2 261.367 14.3147 260.727 17.344C260.087 20.3733 259.489 23.3173 258.935 26.176C257.868 31.3387 256.929 36.1813 256.119 40.704C255.308 45.184 254.689 49.1093 254.263 52.48L243.831 54.912L242.871 45.056C242.785 44.0747 242.657 42.9013 242.487 41.536C242.316 40.128 242.145 38.6987 241.975 37.248C241.804 35.7547 241.633 34.4107 241.463 33.216C241.292 31.9787 241.164 31.0613 241.079 30.464C240.652 32.9813 240.247 35.4347 239.863 37.824C239.479 40.1707 239.052 42.4533 238.583 44.672C238.284 46.1653 237.985 47.7227 237.687 49.344C237.431 50.9227 237.132 52.5227 236.791 54.144L227.447 56.32Z" fill="black"/>
</svg>
