<svg width="126" height="120" viewBox="0 0 126 120" fill="none" xmlns="http://www.w3.org/2000/svg">
<rect width="126" height="120" rx="60" fill="white"/>
<path d="M95.7368 80.8583C93.2548 80.8645 90.9639 81.713 89.121 83.1386L89.1509 83.117L79.2975 73.8665C81.7466 70.4816 83.2191 66.2174 83.2191 61.5952C83.2191 56.6151 81.5107 52.0485 78.6643 48.4847L78.6911 48.5187L89.575 37.278C91.3193 38.4844 93.4638 39.2034 95.7696 39.2034C101.973 39.2034 107 34.0104 107 27.6017C107 21.193 101.973 16 95.7696 16C89.5661 16 84.5393 21.193 84.5393 27.6017C84.5393 29.9868 85.2352 32.2022 86.4299 34.0443L86.403 34.0011L75.5221 45.2418C72.1023 42.329 67.6758 40.561 62.8462 40.561C60.0476 40.561 57.3863 41.1534 54.967 42.2272L55.0984 42.1748L52.0161 36.3924C54.3786 34.2696 55.863 31.1624 55.863 27.6942C55.863 21.338 50.8751 16.1882 44.7253 16.1882C38.5755 16.1882 33.5875 21.3411 33.5875 27.6942C33.5875 34.0505 38.5755 39.2003 44.7253 39.2003C44.7462 39.2003 44.7701 39.2003 44.791 39.2003C45.9797 39.1818 47.1117 38.975 48.172 38.6017L48.0944 38.6264L51.1917 44.4365C45.9439 48.2718 42.5599 54.5108 42.5479 61.5705V61.5736C42.5778 63.7243 42.9213 65.7823 43.5336 67.7139L43.4947 67.5689L39.2445 69.4295C37.2105 66.4334 33.8832 64.5018 30.1169 64.5018C23.976 64.5018 19 69.6424 19 75.9863C19 82.3302 23.976 87.4707 30.1169 87.4707C36.2577 87.4707 41.2337 82.3302 41.2337 75.9863C41.2337 75.1717 41.1531 74.3787 40.9978 73.6135L41.0097 73.6875L45.248 71.83C48.7336 78.2881 55.3045 82.5832 62.8462 82.5832C68.0133 82.5832 72.7265 80.5652 76.2868 77.2513L76.2688 77.2668L86.1522 86.545C85.1516 88.2236 84.5542 90.2508 84.5423 92.4261C84.5423 98.8163 89.5571 104 95.7428 104C101.928 104 106.943 98.8194 106.943 92.4292C106.943 86.039 101.928 80.8583 95.7428 80.8583H95.7368ZM38.0617 27.6325C38.0617 23.7972 41.0694 20.69 44.782 20.69C48.4946 20.69 51.5023 23.7972 51.5023 27.6325C51.5023 31.4679 48.4946 34.575 44.782 34.575C41.0724 34.5689 38.0677 31.4648 38.0617 27.6325ZM30.0273 82.9257C26.3177 82.9226 23.3129 79.8185 23.3129 75.9863C23.3129 72.154 26.3206 69.0468 30.0302 69.0468C33.7398 69.0468 36.7446 72.1509 36.7475 75.9832C36.7416 79.8154 33.7369 82.9195 30.0273 82.9257ZM95.7368 20.69C99.4494 20.69 102.457 23.7972 102.457 27.6325C102.457 31.4679 99.4494 34.575 95.7368 34.575C92.0242 34.575 89.0165 31.4679 89.0165 27.6325C89.0225 23.8003 92.0272 20.6962 95.7368 20.69ZM47.0221 61.5736C47.0221 61.5736 47.0221 61.5736 47.0221 61.5705C47.0221 52.5237 54.1217 45.1893 62.879 45.1893C71.6363 45.1893 78.7359 52.5237 78.7359 61.5705C78.7359 70.6174 71.6363 77.9518 62.879 77.9518C54.1247 77.9425 47.0341 70.6143 47.0221 61.5736ZM95.7368 99.3717C92.0242 99.3717 89.0165 96.2645 89.0165 92.4292C89.0165 88.5938 92.0242 85.4867 95.7368 85.4867C99.4494 85.4867 102.457 88.5938 102.457 92.4292C102.451 96.2614 99.4464 99.3655 95.7368 99.3717Z" fill="black" stroke="black" stroke-width="3"/>
</svg>
